<?xml version="1.0" standalone="no"?>
<!DOCTYPE svg PUBLIC "-//W3C//DTD SVG 20010904//EN"
 "http://www.w3.org/TR/2001/REC-SVG-20010904/DTD/svg10.dtd">
<svg version="1.0" xmlns="http://www.w3.org/2000/svg"
 width="900.000000pt" height="252.000000pt" viewBox="0 0 900.000000 252.000000"
 preserveAspectRatio="xMidYMid meet">
<metadata>
Created by potrace 1.10, written by Peter Selinger 2001-2011
</metadata>
<g transform="translate(0.000000,252.000000) scale(0.100000,-0.100000)"
fill="#000000" stroke="none">
<path d="M7840 2506 c0 -16 -30 -26 -80 -26 -19 0 -44 -7 -54 -15 -11 -8 -30
-15 -42 -15 -12 0 -27 -7 -34 -15 -7 -8 -20 -15 -30 -15 -10 0 -23 -7 -30 -15
-7 -8 -18 -15 -26 -15 -17 0 -217 -197 -235 -232 -8 -14 -25 -48 -37 -75 -13
-26 -30 -61 -38 -76 -8 -16 -14 -40 -14 -53 0 -14 -7 -41 -15 -61 -10 -24 -15
-70 -15 -145 0 -74 5 -120 15 -145 8 -19 15 -48 15 -62 0 -15 7 -36 15 -47 8
-10 15 -29 15 -40 0 -12 7 -27 15 -34 8 -7 15 -21 15 -31 0 -11 4 -19 8 -19 5
0 14 -11 20 -24 16 -36 47 -72 134 -156 43 -42 78 -81 78 -87 0 -10 -18 -51
-42 -93 -4 -8 -11 -22 -14 -30 -3 -8 -19 -42 -34 -75 -15 -33 -31 -67 -34 -75
-3 -8 -10 -22 -14 -30 -5 -8 -17 -33 -27 -55 -9 -22 -21 -47 -26 -55 -5 -8
-12 -22 -15 -30 -3 -8 -10 -22 -15 -30 -5 -8 -12 -22 -15 -30 -11 -29 -37 -85
-46 -100 -4 -8 -11 -22 -14 -30 -13 -32 -66 -146 -75 -160 -5 -8 -12 -22 -15
-30 -3 -8 -12 -27 -20 -42 -8 -14 -14 -33 -14 -41 0 -8 -7 -20 -15 -27 -21
-17 -19 -79 4 -113 35 -54 100 -71 159 -42 24 12 41 37 77 113 26 53 51 104
56 112 5 8 12 22 15 30 10 27 36 85 45 100 5 8 12 22 15 30 3 8 10 22 15 30 5
8 12 22 15 30 11 29 37 85 46 100 4 8 11 22 14 30 13 32 66 146 75 160 5 8 12
22 15 30 11 29 37 85 46 100 4 8 11 22 14 30 3 8 10 22 15 30 10 16 16 30 24
56 5 15 15 16 73 9 136 -17 325 -6 369 21 12 8 30 14 39 14 14 0 48 15 94 41
8 5 22 12 30 16 70 31 230 191 263 263 4 8 18 35 32 59 14 24 25 52 25 61 0 9
7 25 15 36 8 10 15 33 15 49 0 17 7 62 15 100 14 63 13 81 -1 175 -9 58 -22
120 -30 138 -8 18 -14 41 -14 51 0 10 -7 24 -15 31 -8 7 -15 18 -15 26 0 23
-77 128 -141 193 -65 64 -170 141 -193 141 -8 0 -19 7 -26 15 -7 8 -22 15 -34
15 -12 0 -30 6 -41 14 -11 7 -42 16 -69 19 -29 3 -55 12 -61 21 -17 22 -225
24 -225 2z m261 -165 c111 -32 198 -80 270 -151 65 -64 139 -166 139 -193 0
-7 5 -18 10 -23 17 -17 50 -170 50 -227 0 -109 -58 -277 -124 -362 -100 -128
-210 -198 -371 -236 -98 -23 -153 -24 -228 -4 -32 8 -65 15 -73 15 -29 0 -166
75 -216 118 -93 79 -161 182 -202 307 -23 72 -22 251 3 330 68 216 215 357
446 428 72 22 215 21 296 -2z"/>
<path d="M8177 2143 c-5 -36 -11 -88 -38 -318 -6 -55 -14 -148 -18 -207 -4
-59 -10 -110 -13 -113 -7 -7 -35 68 -47 125 -19 99 -62 262 -71 273 -12 14
-40 -5 -45 -32 -3 -14 -12 -48 -19 -76 -8 -27 -21 -77 -30 -110 -8 -33 -19
-76 -24 -95 l-9 -35 -12 30 c-12 29 -17 52 -46 225 -7 47 -19 118 -26 158 -7
40 -18 80 -26 90 -12 16 -14 15 -33 -7 -11 -13 -20 -32 -20 -42 0 -10 -6 -33
-14 -51 -7 -18 -21 -60 -31 -93 -9 -33 -25 -82 -35 -110 l-17 -50 -104 -5
c-96 -5 -104 -7 -104 -25 0 -19 8 -20 116 -23 112 -2 117 -2 131 20 14 22 50
132 63 191 10 48 38 31 48 -28 16 -107 69 -417 73 -433 6 -21 48 -10 52 13 1
11 9 43 17 70 17 60 42 161 49 195 6 29 32 68 40 59 3 -3 10 -26 15 -50 44
-211 87 -376 102 -385 21 -13 38 22 44 91 3 39 12 129 20 200 8 72 19 173 24
226 6 53 13 104 17 113 9 24 23 19 29 -11 3 -16 10 -48 16 -73 7 -25 15 -66
20 -92 4 -25 15 -60 24 -77 l16 -32 97 3 c89 3 97 5 97 23 0 18 -8 20 -83 23
-54 2 -84 7 -86 15 -2 7 -11 40 -20 75 -15 57 -21 84 -56 227 -7 28 -16 70
-21 94 -16 77 -53 97 -62 34z"/>
<path d="M1130 2181 c-7 -13 -9 -105 -8 -263 l3 -243 30 0 30 0 5 115 5 115
118 3 c106 2 118 4 115 20 -3 15 -20 18 -118 22 l-115 5 0 95 0 95 148 3 c147
3 148 3 145 25 -3 22 -6 22 -175 25 -163 2 -173 1 -183 -17z"/>
<path d="M4382 2188 c-7 -7 -12 -41 -12 -84 0 -40 -4 -75 -8 -78 -5 -3 -36 3
-70 12 -53 14 -68 14 -114 2 -56 -14 -108 -46 -108 -66 0 -6 -7 -17 -15 -24
-23 -19 -21 -170 3 -209 50 -82 141 -104 302 -75 71 13 70 10 70 274 0 226 -4
260 -30 260 -3 0 -11 -5 -18 -12z m-56 -210 c43 -33 44 -35 44 -145 0 -126 -6
-133 -117 -133 -70 0 -75 2 -113 36 -40 36 -40 37 -40 109 0 72 0 73 41 114
39 39 45 41 99 41 44 0 64 -5 86 -22z"/>
<path d="M4566 2187 c-28 -20 -18 -61 16 -65 22 -3 30 2 40 23 10 22 9 27 -8
40 -24 18 -26 18 -48 2z"/>
<path d="M5266 2182 c-14 -17 -16 -46 -14 -263 l3 -244 30 0 30 0 3 246 c2
228 1 247 -16 262 -18 16 -20 16 -36 -1z"/>
<path d="M6458 2189 c-32 -18 -16 -69 22 -69 9 0 25 9 36 21 19 21 18 21 -5
40 -27 22 -30 22 -53 8z"/>
<path d="M1692 2036 c-25 -7 -57 -27 -80 -49 l-37 -37 0 -100 0 -99 38 -39
c24 -24 53 -42 82 -50 97 -26 186 -7 242 50 l38 39 0 99 0 99 -37 38 c-56 57
-148 75 -246 49z m180 -71 c61 -61 61 -172 0 -231 -32 -31 -40 -34 -96 -34
-52 0 -66 5 -94 28 -65 54 -67 174 -4 236 33 34 40 36 97 36 57 0 64 -3 97
-35z"/>
<path d="M2231 2035 c-25 -6 -47 -17 -49 -23 -5 -17 -29 -15 -36 3 -3 8 -17
15 -31 15 l-25 0 0 -180 0 -180 30 0 30 0 0 128 c1 105 4 130 18 147 35 41 65
55 122 55 46 0 61 -4 78 -23 20 -22 22 -33 22 -165 l0 -142 30 0 30 0 0 158
c0 151 -1 158 -22 177 -49 43 -114 53 -197 30z"/>
<path d="M2682 2037 c-96 -26 -147 -128 -120 -243 27 -116 138 -168 280 -131
95 25 136 107 121 237 -13 112 -141 174 -281 137z m158 -54 c51 -36 59 -54 60
-134 0 -74 -1 -76 -37 -112 -34 -35 -40 -37 -98 -37 -56 0 -65 3 -97 33 -69
62 -67 180 3 238 28 24 44 29 89 29 37 0 64 -6 80 -17z"/>
<path d="M3220 2039 c-88 -24 -122 -57 -154 -147 -19 -54 -18 -81 6 -143 18
-48 43 -72 92 -86 67 -20 123 -15 194 20 17 8 28 8 42 -1 27 -16 47 -15 54 4
3 9 6 79 6 157 -1 166 -5 176 -83 194 -61 14 -109 15 -157 2z m160 -58 c11
-22 14 -150 4 -200 -10 -49 -64 -81 -135 -81 -62 0 -95 20 -117 73 -15 34 -16
103 -2 112 6 3 10 15 10 25 0 10 19 34 43 54 40 34 46 36 114 36 61 0 74 -3
83 -19z"/>
<path d="M4863 2037 c-143 -40 -182 -247 -64 -342 52 -42 142 -55 216 -32 94
29 135 88 135 190 -1 147 -127 228 -287 184z m160 -56 c87 -57 87 -212 -1
-263 -41 -24 -128 -24 -165 0 -35 24 -67 86 -67 132 0 46 32 108 67 132 38 24
128 24 166 -1z"/>
<path d="M5553 2037 c-77 -22 -133 -100 -133 -188 0 -142 134 -231 284 -187
47 14 106 54 106 73 0 7 7 18 15 25 11 9 15 33 15 90 0 57 -4 81 -15 90 -8 7
-15 18 -15 25 0 21 -61 61 -112 73 -56 14 -89 14 -145 -1z m159 -54 c85 -50
90 -192 9 -260 -35 -30 -132 -32 -175 -4 -32 21 -66 89 -66 131 0 42 34 110
66 131 38 25 125 26 166 2z"/>
<path d="M6070 2037 c-49 -12 -90 -44 -120 -93 -26 -40 -29 -174 -5 -194 8 -7
15 -18 15 -24 0 -7 14 -23 32 -36 28 -21 44 -24 119 -24 71 -1 91 2 107 17 45
41 58 -22 15 -73 l-26 -32 -106 4 c-90 2 -106 1 -109 -13 -3 -18 93 -49 152
-49 49 0 120 35 150 74 26 35 26 35 26 225 0 125 -4 192 -11 196 -20 13 -124
34 -159 33 -19 0 -55 -5 -80 -11z m173 -50 c15 -10 17 -27 15 -117 l-3 -104
-43 -33 c-51 -39 -94 -43 -150 -14 -49 25 -72 67 -72 130 0 58 23 103 67 132
34 23 159 27 186 6z"/>
<path d="M6815 2045 c-5 -2 -29 -9 -52 -15 -75 -19 -143 -115 -143 -203 0 -44
30 -115 58 -139 21 -18 89 -38 127 -38 37 0 107 21 124 38 11 11 17 10 38 -3
50 -33 55 -21 51 159 -2 90 -6 167 -9 170 -20 20 -162 42 -194 31z m135 -71
c13 -33 13 -149 0 -194 -15 -53 -62 -80 -137 -80 -59 0 -63 2 -92 37 -40 49
-48 92 -27 146 35 89 76 117 173 117 70 0 74 -1 83 -26z"/>
<path d="M3577 2023 c-12 -11 -8 -243 5 -284 14 -49 32 -65 90 -80 37 -10 57
-10 102 1 31 7 56 17 56 21 0 18 42 20 54 3 8 -10 20 -15 30 -11 15 6 16 26
14 179 l-3 173 -30 0 -30 0 -3 -137 -3 -136 -34 -26 c-42 -32 -132 -37 -158
-8 -25 28 -36 91 -33 192 1 52 1 101 -2 108 -4 13 -44 17 -55 5z"/>
<path d="M4555 2018 c-3 -8 -4 -88 -3 -178 l3 -165 30 0 30 0 0 175 0 175 -28
3 c-16 2 -29 -2 -32 -10z"/>
<path d="M6446 2015 c-9 -25 -7 -318 3 -333 4 -8 19 -12 32 -10 l24 3 0 175 0
175 -26 3 c-17 2 -29 -3 -33 -13z"/>
<path d="M12 1808 c-9 -9 -12 -158 -12 -609 0 -535 2 -598 16 -610 25 -20 133
-24 177 -6 l37 16 0 250 c0 162 4 252 10 256 6 4 104 7 218 7 133 -1 219 4
242 11 33 11 35 14 38 64 6 96 17 92 -261 95 l-242 3 0 180 0 180 310 5 c171
3 318 9 328 14 14 7 17 22 17 82 l0 74 -433 0 c-323 0 -436 -3 -445 -12z"/>
<path d="M1410 1474 c-25 -7 -58 -14 -75 -14 -16 0 -39 -7 -49 -15 -11 -8 -26
-15 -33 -15 -24 0 -111 -72 -145 -119 -43 -60 -68 -110 -68 -137 0 -12 -7 -41
-15 -64 -26 -74 -11 -212 33 -310 30 -66 131 -180 158 -180 6 0 17 -7 24 -15
7 -8 21 -15 32 -15 10 0 31 -8 45 -17 23 -15 52 -18 203 -18 151 0 180 3 203
18 14 9 35 17 45 17 11 0 25 7 32 15 7 8 18 15 24 15 24 0 126 111 150 163 66
145 69 312 7 447 -36 78 -153 200 -193 200 -8 0 -23 7 -34 15 -10 8 -32 15
-49 15 -16 0 -52 7 -79 15 -61 19 -156 18 -216 -1z m241 -186 c48 -25 109 -84
109 -107 0 -9 7 -25 15 -35 11 -15 15 -49 15 -133 0 -122 -13 -165 -69 -227
-91 -100 -311 -100 -402 0 -56 62 -69 105 -69 226 0 93 4 119 21 155 25 52 65
93 116 121 56 31 206 31 264 0z"/>
<path d="M2630 1475 c-19 -7 -47 -14 -61 -14 -15 -1 -32 -8 -39 -16 -7 -8 -17
-15 -23 -15 -6 0 -25 -14 -43 -31 -36 -35 -48 -33 -59 8 -11 47 -23 53 -95 53
-107 0 -100 30 -100 -432 0 -218 3 -404 6 -413 17 -42 144 -61 204 -30 l30 16
0 291 c0 329 -1 324 83 390 l41 33 118 -2 c111 -1 118 0 118 18 0 11 7 34 16
50 24 47 15 69 -36 90 -53 21 -111 23 -160 4z"/>
<path d="M3340 1474 c-25 -7 -59 -14 -76 -14 -17 0 -37 -7 -44 -15 -7 -8 -20
-15 -30 -15 -10 0 -23 -7 -30 -15 -7 -8 -18 -15 -25 -15 -20 0 -102 -95 -123
-143 -46 -99 -53 -140 -50 -263 4 -108 14 -160 39 -204 5 -8 12 -22 16 -30 10
-24 132 -140 147 -140 8 0 19 -7 26 -15 7 -8 22 -15 34 -15 12 0 33 -8 46 -17
22 -15 51 -18 216 -18 164 0 194 3 217 18 14 9 33 17 41 17 20 0 91 37 106 56
12 14 11 20 -13 59 -37 62 -47 70 -65 57 -9 -7 -24 -15 -32 -18 -8 -3 -24 -10
-35 -17 -46 -26 -213 -38 -305 -23 -59 10 -124 41 -158 75 -32 32 -77 135 -68
156 5 13 54 15 351 15 417 0 395 -6 395 107 0 68 -18 152 -41 193 -5 8 -14 26
-19 39 -15 33 -127 141 -148 141 -9 0 -26 7 -36 15 -11 8 -31 15 -45 15 -14 0
-48 7 -75 15 -61 19 -156 18 -216 -1z m232 -154 c53 -23 93 -61 119 -112 20
-40 25 -98 10 -113 -6 -6 -113 -9 -265 -7 -289 3 -280 0 -249 85 22 60 76 118
135 145 61 28 189 29 250 2z"/>
<path d="M4575 1475 c-27 -8 -62 -15 -76 -15 -15 0 -32 -7 -39 -15 -7 -8 -19
-15 -28 -15 -8 0 -35 -16 -58 -36 -48 -39 -64 -37 -64 6 0 47 -22 60 -100 60
-58 0 -71 -3 -80 -19 -6 -13 -10 -164 -10 -423 0 -328 3 -408 14 -423 17 -24
131 -34 176 -15 l30 12 0 280 c0 247 2 284 17 311 22 39 73 97 87 97 5 0 18 7
27 16 15 13 41 17 124 17 101 0 107 -1 134 -27 54 -52 61 -98 61 -411 l0 -282
25 -11 c33 -15 127 -15 159 0 17 7 28 22 32 45 3 18 5 174 3 347 -4 281 -6
316 -22 333 -9 11 -17 26 -17 34 0 17 -56 74 -92 95 -79 46 -217 63 -303 39z"/>
<path d="M5510 1474 c-25 -7 -57 -14 -71 -14 -14 0 -34 -7 -45 -15 -10 -8 -26
-15 -34 -15 -20 -1 -47 -25 -88 -76 -30 -39 -32 -47 -32 -123 0 -85 17 -130
66 -172 28 -24 134 -79 153 -79 10 0 26 -7 37 -15 10 -8 31 -15 45 -15 14 0
34 -7 45 -15 10 -8 31 -15 45 -15 14 0 34 -7 45 -15 10 -8 25 -15 32 -15 7 0
26 -10 42 -22 26 -19 30 -28 30 -68 0 -37 -5 -51 -26 -70 -24 -24 -30 -24
-169 -24 -116 1 -149 4 -169 17 -14 10 -32 17 -41 17 -8 0 -31 9 -51 19 -54
29 -76 15 -114 -68 -8 -18 -7 -29 5 -47 8 -13 22 -24 29 -24 8 0 27 -6 43 -14
57 -28 100 -39 188 -48 119 -12 331 -2 359 18 11 8 28 14 37 14 24 0 111 88
132 133 50 109 -13 239 -148 300 -22 10 -53 25 -68 33 -16 8 -41 14 -56 14
-15 0 -36 7 -47 15 -10 8 -31 15 -46 15 -15 0 -30 4 -33 10 -3 5 -23 14 -45
20 -48 13 -100 63 -100 96 0 54 24 79 89 93 78 17 266 0 293 -27 7 -7 20 -12
29 -12 9 0 22 -7 29 -15 16 -19 32 -7 66 47 31 48 31 76 0 88 -13 5 -27 14
-31 19 -3 6 -16 11 -29 11 -12 0 -31 7 -42 15 -10 8 -32 15 -49 15 -16 0 -55
7 -85 15 -68 18 -161 18 -220 -1z"/>
<path d="M6555 1475 c-27 -8 -61 -14 -73 -15 -13 0 -36 -6 -50 -14 -15 -8 -34
-17 -42 -21 -57 -23 -115 -78 -156 -148 -19 -32 -34 -66 -34 -76 0 -10 -7 -35
-16 -56 -11 -28 -14 -64 -12 -149 4 -106 11 -137 47 -215 19 -41 119 -146 152
-161 13 -5 31 -14 39 -19 33 -19 89 -34 160 -43 100 -13 311 -2 358 19 149 63
152 67 123 127 -29 58 -47 74 -69 58 -10 -7 -24 -15 -32 -18 -8 -3 -24 -10
-35 -17 -68 -38 -345 -38 -376 -1 -6 8 -18 14 -25 14 -30 0 -92 70 -114 129
-12 33 -19 65 -15 70 4 8 119 11 353 11 423 0 395 -9 390 124 -4 87 -11 117
-47 196 -20 45 -136 160 -160 160 -10 0 -24 7 -31 15 -7 8 -27 15 -44 15 -17
0 -53 7 -80 15 -60 18 -144 18 -211 0z m226 -155 c57 -26 69 -36 107 -89 24
-33 32 -55 32 -87 0 -24 -5 -46 -11 -49 -5 -4 -121 -6 -257 -6 -282 2 -289 4
-259 66 9 20 17 42 17 50 0 19 88 105 108 105 9 0 26 7 36 15 31 23 172 20
227 -5z"/>
<path d="M8795 825 c-5 -1 -37 -8 -70 -15 -33 -6 -80 -21 -105 -33 -51 -23
-140 -109 -140 -135 -1 -9 -7 -28 -14 -42 -26 -46 12 -105 94 -146 144 -72
159 -104 84 -178 l-46 -46 -101 0 c-74 1 -107 5 -121 15 -30 22 -64 18 -91
-11 -30 -33 -22 -51 31 -72 51 -21 244 -23 294 -3 19 8 40 16 45 18 43 17 125
95 125 119 0 6 7 17 15 24 10 8 15 30 15 62 0 44 -4 53 -37 83 -21 19 -45 35
-54 35 -9 0 -22 7 -29 15 -7 8 -20 15 -29 15 -18 0 -81 53 -81 69 0 19 24 66
44 85 58 59 153 72 243 34 l53 -22 23 22 c13 12 31 22 40 22 9 0 17 7 17 15 0
8 -5 15 -12 15 -6 0 -19 6 -27 13 -21 18 -143 49 -166 42z"/>
<path d="M7928 775 c-10 -13 -18 -28 -18 -34 0 -8 -20 -51 -42 -91 -4 -8 -11
-22 -14 -30 -13 -32 -66 -146 -75 -160 -5 -8 -12 -22 -15 -30 -3 -8 -11 -28
-19 -45 -7 -16 -16 -37 -19 -45 -3 -8 -10 -22 -15 -30 -5 -8 -12 -22 -15 -30
-3 -8 -10 -22 -14 -30 -23 -40 -32 -61 -32 -75 0 -19 42 -29 77 -18 27 9 46
40 113 186 12 26 30 52 40 57 22 12 120 13 137 2 8 -5 13 -47 15 -127 l3 -120
33 -3 c19 -2 44 4 58 13 23 15 24 20 24 129 0 97 3 115 18 129 10 10 25 17 33
17 31 0 126 98 158 162 41 84 41 124 -2 166 l-33 32 -189 0 c-189 -1 -190 -1
-207 -25z m326 -91 c16 -24 16 -27 -5 -70 -30 -63 -81 -110 -127 -118 -20 -3
-74 -6 -119 -6 -95 0 -96 1 -59 77 13 26 27 55 30 63 3 8 10 22 15 30 5 8 12
23 15 33 5 15 20 17 120 17 111 0 114 -1 130 -26z"/>
</g>
</svg>
