<?xml version="1.0" encoding="utf-8"?>
<!-- Generator: Adobe Illustrator 18.0.0, SVG Export Plug-In . SVG Version: 6.00 Build 0)  -->
<!DOCTYPE svg PUBLIC "-//W3C//DTD SVG 1.1//EN" "http://www.w3.org/Graphics/SVG/1.1/DTD/svg11.dtd">
<svg version="1.1" id="Layer_1" xmlns="http://www.w3.org/2000/svg" xmlns:xlink="http://www.w3.org/1999/xlink" x="0px" y="0px"
	 width="78px" height="78px" viewBox="0 0 78 78" style="enable-background:new 0 0 78 78;" xml:space="preserve">
<style type="text/css">
	.st0{fill:#ED1213;}
	.st1{fill:#FFFFFF;}
	.st2{fill:#2169A8;}
	.st3{fill:#0065A1;}
	.st4{fill:#BD081C;}
	.st5{fill:#1AB7EA;}
	.st6{fill-rule:evenodd;clip-rule:evenodd;fill:#FF9900;}
	.st7{fill-rule:evenodd;clip-rule:evenodd;}
	.st8{fill-rule:evenodd;clip-rule:evenodd;fill:#1E232D;}
	.st9{fill:url(#coin_1_);}
	.st10{fill:#F7931A;}
	.st11{fill-rule:evenodd;clip-rule:evenodd;fill:#F48120;}
	.st12{fill-rule:evenodd;clip-rule:evenodd;fill:#FFFFFF;}
	.st13{fill:#CCCCCC;}
	.st14{fill:#0945D8;}
	.st15{fill:#EA4C89;}
	.st16{fill:#C32361;}
	.st17{fill:#007EE5;}
	.st18{fill:#0077C0;}
	.st19{fill:#EE3A3F;}
	.st20{fill:#0067B2;}
	.st21{fill:#FAAC18;}
	.st22{fill:#6AB845;}
	.st23{fill:#807F83;}
	.st24{fill:#7AC143;}
	.st25{fill:#85C808;}
	.st26{fill:#F94877;}
	.st27{fill:#0F0D0E;}
	.st28{fill-rule:evenodd;clip-rule:evenodd;fill:#181616;}
	.st29{fill:#C30907;}
	.st30{fill:url(#SVGID_1_);}
	.st31{fill:url(#SVGID_2_);}
	.st32{fill:url(#SVGID_3_);}
	.st33{fill:url(#SVGID_4_);}
	.st34{fill:none;}
	.st35{fill:#1E232D;}
	.st36{fill:#E44D26;}
	.st37{fill:#F16529;}
	.st38{fill:#EBEBEB;}
	.st39{fill-rule:evenodd;clip-rule:evenodd;fill:url(#SVGID_5_);}
	.st40{fill:#E67E17;}
	.st41{fill:#EA5754;}
	.st42{fill:#087DC1;}
	.st43{fill:#9D7EB8;}
	.st44{fill:#00AF4F;}
	.st45{fill:#F3A555;}
	.st46{fill:#737B7F;}
	.st47{fill-rule:evenodd;clip-rule:evenodd;fill:#00A9F0;}
	.st48{fill-rule:evenodd;clip-rule:evenodd;fill:#FEFEFE;}
	.st49{fill:#00AFF0;}
	.st50{fill:#EF4E23;}
	.st51{fill:url(#circle_1_);}
	.st52{fill:url(#SVGID_6_);}
	.st53{fill:url(#SVGID_7_);}
	.st54{fill:url(#stroke_2_);}
	.st55{fill:#5FA9DD;}
	.st56{fill-rule:evenodd;clip-rule:evenodd;fill:#7C529D;}
	.st57{fill:#00ADEF;}
	.st58{fill:#21759B;}
	.st59{fill:#464646;}
	.st60{fill:#7B0099;}
	.st61{fill:url(#SVGID_8_);}
	.st62{fill:url(#lozenge_1_);}
	.st63{fill-rule:evenodd;clip-rule:evenodd;fill:#8A2A8F;}
	.st64{fill:#8A2A8F;}
</style>
<g>
	
		<linearGradient id="SVGID_1_" gradientUnits="userSpaceOnUse" x1="39.8537" y1="69.2073" x2="39.8537" y2="6.9572" gradientTransform="matrix(1 9.148160e-003 -9.148160e-003 1 0.3587 -0.4224)">
		<stop  offset="0" style="stop-color:#6CD94E"/>
		<stop  offset="0.5153" style="stop-color:#1D9E11"/>
		<stop  offset="1" style="stop-color:#6CD94E"/>
	</linearGradient>
	<path style="fill-rule:evenodd;clip-rule:evenodd;fill:url(#SVGID_1_);" d="M39.6,69.1c-6.3-0.1-12.2-2-17.1-5.3l-12,3.7l4-11.5
		c-3.7-5.2-5.8-11.5-5.8-18.3C8.9,20.6,23,6.7,40.1,6.9c17.2,0.2,31,14.2,30.8,31.4C70.8,55.5,56.7,69.3,39.6,69.1z"/>
	<path class="st12" d="M40.2,1C19.8,0.8,3,17.2,2.8,37.7c-0.1,7,1.8,13.6,5.1,19.2L1.1,76.6l20.6-6.4c5.3,3,11.4,4.7,17.9,4.8
		C60,75.2,76.7,58.8,76.9,38.4C77.1,17.9,60.6,1.2,40.2,1z M39.6,69.1c-6.3-0.1-12.2-2-17.1-5.3l-12,3.7l4-11.5
		c-3.7-5.2-5.8-11.5-5.8-18.3C8.9,20.6,23,6.7,40.1,6.9c17.2,0.2,31,14.2,30.8,31.4C70.8,55.5,56.7,69.3,39.6,69.1z"/>
	<path class="st12" d="M30.2,23.3c-0.6-1.5-1-1.5-2-1.6c-0.3,0-0.7,0-1,0c-1.2,0-2.4,0.3-3.2,1.1c-0.9,0.9-3.2,3.1-3.2,7.5
		c0,4.5,3.2,8.8,3.6,9.4c0.4,0.6,6.3,10,15.4,13.8c7.1,3,9.2,2.8,10.9,2.4c2.4-0.5,5.4-2.2,6.2-4.3c0.8-2.1,0.8-3.9,0.6-4.3
		c-0.2-0.4-0.8-0.6-1.7-1.1c-0.9-0.5-5.3-2.7-6.2-3c-0.8-0.3-1.6-0.2-2.2,0.7c-0.9,1.2-1.8,2.5-2.5,3.2c-0.6,0.6-1.4,0.7-2.2,0.3
		c-1-0.4-3.8-1.4-7.3-4.6c-2.7-2.4-4.5-5.4-5-6.3c-0.5-0.9,0-1.4,0.4-1.9c0.5-0.6,0.9-1,1.4-1.5c0.5-0.5,0.7-0.8,1-1.4
		c0.3-0.6,0.1-1.2-0.1-1.7C32.8,29.6,31,25.1,30.2,23.3z"/>
</g>
</svg>
